<mxfile host="app.diagrams.net" modified="2024-05-16T20:24:04.218Z" agent="Mozilla/5.0 (Windows NT 10.0; Win64; x64) AppleWebKit/537.36 (KHTML, like Gecko) Chrome/124.0.0.0 Safari/537.36" etag="vA1eRSq7qakFlM1w0At1" version="24.2.2" type="device">
  <diagram name="Pagina-1" id="ojl8JL73PEuaeFPcKf_O">
    <mxGraphModel dx="1075" dy="463" grid="0" gridSize="10" guides="1" tooltips="1" connect="1" arrows="1" fold="1" page="1" pageScale="1" pageWidth="827" pageHeight="1169" math="0" shadow="0">
      <root>
        <mxCell id="0" />
        <mxCell id="1" parent="0" />
        <mxCell id="eVMI9hCCaQVdcsvXH0gA-1" value="AddCommentToImage" style="shape=umlLifeline;perimeter=lifelinePerimeter;whiteSpace=wrap;html=1;container=0;dropTarget=0;collapsible=0;recursiveResize=0;outlineConnect=0;portConstraint=eastwest;newEdgeStyle={&quot;edgeStyle&quot;:&quot;elbowEdgeStyle&quot;,&quot;elbow&quot;:&quot;vertical&quot;,&quot;curved&quot;:0,&quot;rounded&quot;:0};" parent="1" vertex="1">
          <mxGeometry x="125" y="69" width="125" height="371" as="geometry" />
        </mxCell>
        <mxCell id="eVMI9hCCaQVdcsvXH0gA-2" value="" style="html=1;points=[];perimeter=orthogonalPerimeter;outlineConnect=0;targetShapes=umlLifeline;portConstraint=eastwest;newEdgeStyle={&quot;edgeStyle&quot;:&quot;elbowEdgeStyle&quot;,&quot;elbow&quot;:&quot;vertical&quot;,&quot;curved&quot;:0,&quot;rounded&quot;:0};" parent="eVMI9hCCaQVdcsvXH0gA-1" vertex="1">
          <mxGeometry x="57.5" y="70" width="10" height="280" as="geometry" />
        </mxCell>
        <mxCell id="eVMI9hCCaQVdcsvXH0gA-3" value="CommentDAO" style="shape=umlLifeline;perimeter=lifelinePerimeter;whiteSpace=wrap;html=1;container=0;dropTarget=0;collapsible=0;recursiveResize=0;outlineConnect=0;portConstraint=eastwest;newEdgeStyle={&quot;edgeStyle&quot;:&quot;elbowEdgeStyle&quot;,&quot;elbow&quot;:&quot;vertical&quot;,&quot;curved&quot;:0,&quot;rounded&quot;:0};" parent="1" vertex="1">
          <mxGeometry x="530" y="69" width="100" height="371" as="geometry" />
        </mxCell>
        <mxCell id="eVMI9hCCaQVdcsvXH0gA-4" value="" style="html=1;points=[];perimeter=orthogonalPerimeter;outlineConnect=0;targetShapes=umlLifeline;portConstraint=eastwest;newEdgeStyle={&quot;edgeStyle&quot;:&quot;elbowEdgeStyle&quot;,&quot;elbow&quot;:&quot;vertical&quot;,&quot;curved&quot;:0,&quot;rounded&quot;:0};" parent="eVMI9hCCaQVdcsvXH0gA-3" vertex="1">
          <mxGeometry x="45" y="282" width="10" height="33" as="geometry" />
        </mxCell>
        <mxCell id="eVMI9hCCaQVdcsvXH0gA-5" value="DoPOST" style="html=1;verticalAlign=bottom;startArrow=circle;startFill=1;endArrow=open;startSize=6;endSize=8;curved=0;rounded=0;" parent="1" edge="1">
          <mxGeometry width="80" relative="1" as="geometry">
            <mxPoint x="100" y="159" as="sourcePoint" />
            <mxPoint x="180" y="159" as="targetPoint" />
          </mxGeometry>
        </mxCell>
        <mxCell id="eVMI9hCCaQVdcsvXH0gA-6" value="" style="endArrow=classic;html=1;rounded=0;exitX=1.02;exitY=0.085;exitDx=0;exitDy=0;exitPerimeter=0;entryX=0.267;entryY=0.157;entryDx=0;entryDy=0;entryPerimeter=0;" parent="1" target="eVMI9hCCaQVdcsvXH0gA-4" edge="1">
          <mxGeometry width="50" height="50" relative="1" as="geometry">
            <mxPoint x="190.5" y="353.2199999999999" as="sourcePoint" />
            <mxPoint x="557.5" y="353.16999999999996" as="targetPoint" />
          </mxGeometry>
        </mxCell>
        <mxCell id="eVMI9hCCaQVdcsvXH0gA-7" value="GoToimagePage" style="shape=umlLifeline;perimeter=lifelinePerimeter;whiteSpace=wrap;html=1;container=0;dropTarget=0;collapsible=0;recursiveResize=0;outlineConnect=0;portConstraint=eastwest;newEdgeStyle={&quot;edgeStyle&quot;:&quot;elbowEdgeStyle&quot;,&quot;elbow&quot;:&quot;vertical&quot;,&quot;curved&quot;:0,&quot;rounded&quot;:0};" parent="1" vertex="1">
          <mxGeometry x="760" y="69" width="119" height="371" as="geometry" />
        </mxCell>
        <mxCell id="eVMI9hCCaQVdcsvXH0gA-8" value="" style="html=1;points=[];perimeter=orthogonalPerimeter;outlineConnect=0;targetShapes=umlLifeline;portConstraint=eastwest;newEdgeStyle={&quot;edgeStyle&quot;:&quot;elbowEdgeStyle&quot;,&quot;elbow&quot;:&quot;vertical&quot;,&quot;curved&quot;:0,&quot;rounded&quot;:0};" parent="eVMI9hCCaQVdcsvXH0gA-7" vertex="1">
          <mxGeometry x="54.5" y="333" width="10" height="14" as="geometry" />
        </mxCell>
        <mxCell id="eVMI9hCCaQVdcsvXH0gA-9" value="AddCommentToImage" style="text;html=1;align=center;verticalAlign=middle;resizable=0;points=[];autosize=1;strokeColor=none;fillColor=none;" parent="1" vertex="1">
          <mxGeometry x="10" y="39" width="140" height="30" as="geometry" />
        </mxCell>
        <mxCell id="eVMI9hCCaQVdcsvXH0gA-10" value="Post&lt;div&gt;/AddCommentToImage&lt;/div&gt;&lt;div&gt;albumId&lt;/div&gt;&lt;div&gt;imageId&lt;/div&gt;&lt;div&gt;content&lt;/div&gt;&lt;div&gt;&lt;br&gt;&lt;/div&gt;&lt;div&gt;From: image.html&lt;/div&gt;&lt;div&gt;&lt;br&gt;&lt;/div&gt;" style="text;html=1;align=center;verticalAlign=middle;resizable=0;points=[];autosize=1;strokeColor=none;fillColor=none;" parent="1" vertex="1">
          <mxGeometry x="30" y="163" width="150" height="130" as="geometry" />
        </mxCell>
        <mxCell id="eVMI9hCCaQVdcsvXH0gA-11" value="&lt;font style=&quot;font-size: 10px;&quot;&gt;new CommentDAO()&lt;/font&gt;" style="text;html=1;align=center;verticalAlign=middle;resizable=0;points=[];autosize=1;strokeColor=none;fillColor=none;" parent="1" vertex="1">
          <mxGeometry x="333" y="332" width="120" height="30" as="geometry" />
        </mxCell>
        <mxCell id="eVMI9hCCaQVdcsvXH0gA-12" value="" style="endArrow=classic;html=1;rounded=0;exitX=1.02;exitY=0.085;exitDx=0;exitDy=0;exitPerimeter=0;" parent="1" edge="1" target="eVMI9hCCaQVdcsvXH0gA-4">
          <mxGeometry width="50" height="50" relative="1" as="geometry">
            <mxPoint x="192" y="378" as="sourcePoint" />
            <mxPoint x="580" y="378" as="targetPoint" />
          </mxGeometry>
        </mxCell>
        <mxCell id="eVMI9hCCaQVdcsvXH0gA-13" value="&lt;font style=&quot;font-size: 10px;&quot;&gt;addComment(content,&amp;nbsp;&lt;/font&gt;&lt;span style=&quot;font-size: 10px; background-color: initial;&quot;&gt;userId, imageId)&lt;/span&gt;" style="text;html=1;align=center;verticalAlign=middle;resizable=0;points=[];autosize=1;strokeColor=none;fillColor=none;" parent="1" vertex="1">
          <mxGeometry x="344" y="354" width="200" height="30" as="geometry" />
        </mxCell>
        <mxCell id="eVMI9hCCaQVdcsvXH0gA-14" value="" style="endArrow=classic;html=1;rounded=0;" parent="1" edge="1">
          <mxGeometry width="50" height="50" relative="1" as="geometry">
            <mxPoint x="192.5" y="410" as="sourcePoint" />
            <mxPoint x="814.5000000000002" y="409.9999999999999" as="targetPoint" />
          </mxGeometry>
        </mxCell>
        <mxCell id="eVMI9hCCaQVdcsvXH0gA-15" value="redirect" style="text;html=1;align=center;verticalAlign=middle;resizable=0;points=[];autosize=1;strokeColor=none;fillColor=none;" parent="1" vertex="1">
          <mxGeometry x="344" y="386" width="60" height="30" as="geometry" />
        </mxCell>
        <mxCell id="KD923nzpBnJ4Ks0oKZUP-2" value="ImageDAO" style="shape=umlLifeline;perimeter=lifelinePerimeter;whiteSpace=wrap;html=1;container=0;dropTarget=0;collapsible=0;recursiveResize=0;outlineConnect=0;portConstraint=eastwest;newEdgeStyle={&quot;edgeStyle&quot;:&quot;elbowEdgeStyle&quot;,&quot;elbow&quot;:&quot;vertical&quot;,&quot;curved&quot;:0,&quot;rounded&quot;:0};" vertex="1" parent="1">
          <mxGeometry x="404" y="69" width="100" height="371" as="geometry" />
        </mxCell>
        <mxCell id="KD923nzpBnJ4Ks0oKZUP-3" value="" style="html=1;points=[];perimeter=orthogonalPerimeter;outlineConnect=0;targetShapes=umlLifeline;portConstraint=eastwest;newEdgeStyle={&quot;edgeStyle&quot;:&quot;elbowEdgeStyle&quot;,&quot;elbow&quot;:&quot;vertical&quot;,&quot;curved&quot;:0,&quot;rounded&quot;:0};" vertex="1" parent="KD923nzpBnJ4Ks0oKZUP-2">
          <mxGeometry x="46" y="141" width="10" height="89" as="geometry" />
        </mxCell>
        <mxCell id="KD923nzpBnJ4Ks0oKZUP-4" value="AlbumDAO" style="shape=umlLifeline;perimeter=lifelinePerimeter;whiteSpace=wrap;html=1;container=0;dropTarget=0;collapsible=0;recursiveResize=0;outlineConnect=0;portConstraint=eastwest;newEdgeStyle={&quot;edgeStyle&quot;:&quot;elbowEdgeStyle&quot;,&quot;elbow&quot;:&quot;vertical&quot;,&quot;curved&quot;:0,&quot;rounded&quot;:0};" vertex="1" parent="1">
          <mxGeometry x="280" y="69" width="100" height="371" as="geometry" />
        </mxCell>
        <mxCell id="KD923nzpBnJ4Ks0oKZUP-5" value="" style="html=1;points=[];perimeter=orthogonalPerimeter;outlineConnect=0;targetShapes=umlLifeline;portConstraint=eastwest;newEdgeStyle={&quot;edgeStyle&quot;:&quot;elbowEdgeStyle&quot;,&quot;elbow&quot;:&quot;vertical&quot;,&quot;curved&quot;:0,&quot;rounded&quot;:0};" vertex="1" parent="KD923nzpBnJ4Ks0oKZUP-4">
          <mxGeometry x="45" y="70" width="10" height="60" as="geometry" />
        </mxCell>
        <mxCell id="KD923nzpBnJ4Ks0oKZUP-6" value="" style="endArrow=classic;html=1;rounded=0;exitX=1.02;exitY=0.085;exitDx=0;exitDy=0;exitPerimeter=0;" edge="1" parent="1">
          <mxGeometry width="50" height="50" relative="1" as="geometry">
            <mxPoint x="193.5" y="231" as="sourcePoint" />
            <mxPoint x="450.5" y="231" as="targetPoint" />
          </mxGeometry>
        </mxCell>
        <mxCell id="KD923nzpBnJ4Ks0oKZUP-7" value="&lt;font style=&quot;font-size: 10px;&quot;&gt;new ImageDAO()&lt;/font&gt;" style="text;html=1;align=center;verticalAlign=middle;resizable=0;points=[];autosize=1;strokeColor=none;fillColor=none;" vertex="1" parent="1">
          <mxGeometry x="333" y="208" width="100" height="30" as="geometry" />
        </mxCell>
        <mxCell id="KD923nzpBnJ4Ks0oKZUP-8" value="" style="endArrow=classic;html=1;rounded=0;exitX=1.02;exitY=0.085;exitDx=0;exitDy=0;exitPerimeter=0;" edge="1" parent="1">
          <mxGeometry width="50" height="50" relative="1" as="geometry">
            <mxPoint x="193" y="250.5" as="sourcePoint" />
            <mxPoint x="449" y="250.5" as="targetPoint" />
          </mxGeometry>
        </mxCell>
        <mxCell id="KD923nzpBnJ4Ks0oKZUP-9" value="&lt;span style=&quot;font-size: 10px;&quot;&gt;findImageById(imageId)&lt;/span&gt;" style="text;html=1;align=center;verticalAlign=middle;resizable=0;points=[];autosize=1;strokeColor=none;fillColor=none;" vertex="1" parent="1">
          <mxGeometry x="285" y="226.5" width="130" height="30" as="geometry" />
        </mxCell>
        <mxCell id="KD923nzpBnJ4Ks0oKZUP-10" value="" style="endArrow=classic;html=1;rounded=0;exitX=1.02;exitY=0.085;exitDx=0;exitDy=0;exitPerimeter=0;" edge="1" parent="1" target="KD923nzpBnJ4Ks0oKZUP-5">
          <mxGeometry width="50" height="50" relative="1" as="geometry">
            <mxPoint x="193.75" y="149.99999999999997" as="sourcePoint" />
            <mxPoint x="320" y="150" as="targetPoint" />
          </mxGeometry>
        </mxCell>
        <mxCell id="KD923nzpBnJ4Ks0oKZUP-11" value="" style="endArrow=classic;html=1;rounded=0;exitX=1.02;exitY=0.085;exitDx=0;exitDy=0;exitPerimeter=0;" edge="1" parent="1" target="KD923nzpBnJ4Ks0oKZUP-5">
          <mxGeometry width="50" height="50" relative="1" as="geometry">
            <mxPoint x="193.75" y="172.99999999999997" as="sourcePoint" />
            <mxPoint x="572.75" y="172.99999999999997" as="targetPoint" />
          </mxGeometry>
        </mxCell>
        <mxCell id="KD923nzpBnJ4Ks0oKZUP-14" value="&lt;font style=&quot;font-size: 10px;&quot;&gt;new Album&lt;span style=&quot;color: rgba(0, 0, 0, 0); font-family: monospace; font-size: 0px; text-align: start;&quot;&gt;%3CmxGraphModel%3E%3Croot%3E%3CmxCell%20id%3D%220%22%2F%3E%3CmxCell%20id%3D%221%22%20parent%3D%220%22%2F%3E%3CmxCell%20id%3D%222%22%20value%3D%22%26lt%3Bfont%20style%3D%26quot%3Bfont-size%3A%2010px%3B%26quot%3B%26gt%3Bnew%20ImageDAO()%26lt%3B%2Ffont%26gt%3B%22%20style%3D%22text%3Bhtml%3D1%3Balign%3Dcenter%3BverticalAlign%3Dmiddle%3Bresizable%3D0%3Bpoints%3D%5B%5D%3Bautosize%3D1%3BstrokeColor%3Dnone%3BfillColor%3Dnone%3B%22%20vertex%3D%221%22%20parent%3D%221%22%3E%3CmxGeometry%20x%3D%22333%22%20y%3D%22218.5%22%20width%3D%22100%22%20height%3D%2230%22%20as%3D%22geometry%22%2F%3E%3C%2FmxCell%3E%3C%2Froot%3E%3C%2FmxGraphModel%3E&lt;/span&gt;&lt;span style=&quot;color: rgba(0, 0, 0, 0); font-family: monospace; font-size: 0px; text-align: start;&quot;&gt;%3CmxGraphModel%3E%3Croot%3E%3CmxCell%20id%3D%220%22%2F%3E%3CmxCell%20id%3D%221%22%20parent%3D%220%22%2F%3E%3CmxCell%20id%3D%222%22%20value%3D%22%26lt%3Bfont%20style%3D%26quot%3Bfont-size%3A%2010px%3B%26quot%3B%26gt%3Bnew%20ImageDAO()%26lt%3B%2Ffont%26gt%3B%22%20style%3D%22text%3Bhtml%3D1%3Balign%3Dcenter%3BverticalAlign%3Dmiddle%3Bresizable%3D0%3Bpoints%3D%5B%5D%3Bautosize%3D1%3BstrokeColor%3Dnone%3BfillColor%3Dnone%3B%22%20vertex%3D%221%22%20parent%3D%221%22%3E%3CmxGeometry%20x%3D%22333%22%20y%3D%22218.5%22%20width%3D%22100%22%20height%3D%2230%22%20as%3D%22geometry%22%2F%3E%3C%2FmxCell%3E%3C%2Froot%3E%3C%2FmxGraphModel%3E&lt;/span&gt;&lt;span style=&quot;color: rgba(0, 0, 0, 0); font-family: monospace; font-size: 0px; text-align: start;&quot;&gt;%3CmxGraphModel%3E%3Croot%3E%3CmxCell%20id%3D%220%22%2F%3E%3CmxCell%20id%3D%221%22%20parent%3D%220%22%2F%3E%3CmxCell%20id%3D%222%22%20value%3D%22%26lt%3Bfont%20style%3D%26quot%3Bfont-size%3A%2010px%3B%26quot%3B%26gt%3Bnew%20ImageDAO()%26lt%3B%2Ffont%26gt%3B%22%20style%3D%22text%3Bhtml%3D1%3Balign%3Dcenter%3BverticalAlign%3Dmiddle%3Bresizable%3D0%3Bpoints%3D%5B%5D%3Bautosize%3D1%3BstrokeColor%3Dnone%3BfillColor%3Dnone%3B%22%20vertex%3D%221%22%20parent%3D%221%22%3E%3CmxGeometry%20x%3D%22333%22%20y%3D%22218.5%22%20width%3D%22100%22%20height%3D%2230%22%20as%3D%22geometry%22%2F%3E%3C%2FmxCell%3E%3C%2Froot%3E%3C%2FmxGraphModel%3E&lt;/span&gt;DAO()&lt;/font&gt;" style="text;html=1;align=center;verticalAlign=middle;resizable=0;points=[];autosize=1;strokeColor=none;fillColor=none;" vertex="1" parent="1">
          <mxGeometry x="197" y="127" width="100" height="30" as="geometry" />
        </mxCell>
        <mxCell id="KD923nzpBnJ4Ks0oKZUP-15" value="&lt;span style=&quot;font-size: 10px;&quot;&gt;findAlbumById(albumId)&lt;/span&gt;" style="text;html=1;align=center;verticalAlign=middle;resizable=0;points=[];autosize=1;strokeColor=none;fillColor=none;" vertex="1" parent="1">
          <mxGeometry x="200" y="150" width="130" height="30" as="geometry" />
        </mxCell>
        <mxCell id="KD923nzpBnJ4Ks0oKZUP-16" value="album" style="html=1;verticalAlign=bottom;endArrow=open;dashed=1;endSize=8;edgeStyle=elbowEdgeStyle;elbow=vertical;curved=0;rounded=0;" edge="1" parent="1">
          <mxGeometry x="0.4591" relative="1" as="geometry">
            <mxPoint x="200" y="194.33333333333334" as="targetPoint" />
            <Array as="points" />
            <mxPoint x="320" y="194" as="sourcePoint" />
            <mxPoint as="offset" />
          </mxGeometry>
        </mxCell>
        <mxCell id="KD923nzpBnJ4Ks0oKZUP-18" value="ErrorHandler" style="shape=umlLifeline;perimeter=lifelinePerimeter;whiteSpace=wrap;html=1;container=0;dropTarget=0;collapsible=0;recursiveResize=0;outlineConnect=0;portConstraint=eastwest;newEdgeStyle={&quot;edgeStyle&quot;:&quot;elbowEdgeStyle&quot;,&quot;elbow&quot;:&quot;vertical&quot;,&quot;curved&quot;:0,&quot;rounded&quot;:0};" vertex="1" parent="1">
          <mxGeometry x="650" y="69" width="100" height="371" as="geometry" />
        </mxCell>
        <mxCell id="KD923nzpBnJ4Ks0oKZUP-19" value="" style="html=1;points=[];perimeter=orthogonalPerimeter;outlineConnect=0;targetShapes=umlLifeline;portConstraint=eastwest;newEdgeStyle={&quot;edgeStyle&quot;:&quot;elbowEdgeStyle&quot;,&quot;elbow&quot;:&quot;vertical&quot;,&quot;curved&quot;:0,&quot;rounded&quot;:0};" vertex="1" parent="KD923nzpBnJ4Ks0oKZUP-18">
          <mxGeometry x="45" y="110" width="10" height="210" as="geometry" />
        </mxCell>
        <mxCell id="KD923nzpBnJ4Ks0oKZUP-20" value="image" style="html=1;verticalAlign=bottom;endArrow=open;dashed=1;endSize=8;edgeStyle=elbowEdgeStyle;elbow=vertical;curved=0;rounded=0;" edge="1" parent="1">
          <mxGeometry x="0.4591" relative="1" as="geometry">
            <mxPoint x="193" y="267" as="targetPoint" />
            <Array as="points" />
            <mxPoint x="450" y="267" as="sourcePoint" />
            <mxPoint as="offset" />
          </mxGeometry>
        </mxCell>
        <mxCell id="KD923nzpBnJ4Ks0oKZUP-22" value="" style="endArrow=classic;html=1;rounded=0;exitX=1.02;exitY=0.085;exitDx=0;exitDy=0;exitPerimeter=0;" edge="1" parent="1">
          <mxGeometry width="50" height="50" relative="1" as="geometry">
            <mxPoint x="196" y="283" as="sourcePoint" />
            <mxPoint x="452" y="283" as="targetPoint" />
          </mxGeometry>
        </mxCell>
        <mxCell id="KD923nzpBnJ4Ks0oKZUP-23" value="&lt;span style=&quot;font-size: 10px;&quot;&gt;albumContainsImage(albumId, imageId)&lt;/span&gt;" style="text;html=1;align=center;verticalAlign=middle;resizable=0;points=[];autosize=1;strokeColor=none;fillColor=none;" vertex="1" parent="1">
          <mxGeometry x="233" y="259" width="200" height="30" as="geometry" />
        </mxCell>
        <mxCell id="KD923nzpBnJ4Ks0oKZUP-24" value="contained" style="html=1;verticalAlign=bottom;endArrow=open;dashed=1;endSize=8;edgeStyle=elbowEdgeStyle;elbow=vertical;curved=0;rounded=0;" edge="1" parent="1">
          <mxGeometry x="0.4591" relative="1" as="geometry">
            <mxPoint x="191" y="302" as="targetPoint" />
            <Array as="points" />
            <mxPoint x="448" y="302" as="sourcePoint" />
            <mxPoint as="offset" />
          </mxGeometry>
        </mxCell>
        <mxCell id="KD923nzpBnJ4Ks0oKZUP-27" value="" style="endArrow=classic;html=1;rounded=0;" edge="1" parent="1">
          <mxGeometry width="50" height="50" relative="1" as="geometry">
            <mxPoint x="193.5" y="203" as="sourcePoint" />
            <mxPoint x="694.5" y="203" as="targetPoint" />
          </mxGeometry>
        </mxCell>
        <mxCell id="KD923nzpBnJ4Ks0oKZUP-28" value="" style="endArrow=classic;html=1;rounded=0;" edge="1" parent="1">
          <mxGeometry width="50" height="50" relative="1" as="geometry">
            <mxPoint x="193.5" y="332" as="sourcePoint" />
            <mxPoint x="694.5" y="332" as="targetPoint" />
          </mxGeometry>
        </mxCell>
        <mxCell id="KD923nzpBnJ4Ks0oKZUP-29" value="&lt;span style=&quot;font-size: 10px;&quot;&gt;[album==null] displayError (request, response, &quot;album not found&quot;)&lt;/span&gt;" style="text;html=1;align=center;verticalAlign=middle;resizable=0;points=[];autosize=1;strokeColor=none;fillColor=none;" vertex="1" parent="1">
          <mxGeometry x="380" y="178" width="310" height="30" as="geometry" />
        </mxCell>
        <mxCell id="KD923nzpBnJ4Ks0oKZUP-31" value="&lt;span style=&quot;font-size: 10px;&quot;&gt;[image==null || contained==false] displayError (request, response, &quot;error string&quot;)&lt;/span&gt;" style="text;html=1;align=center;verticalAlign=middle;resizable=0;points=[];autosize=1;strokeColor=none;fillColor=none;" vertex="1" parent="1">
          <mxGeometry x="297" y="307" width="380" height="30" as="geometry" />
        </mxCell>
      </root>
    </mxGraphModel>
  </diagram>
</mxfile>
